<svg width="24" height="24" viewBox="0 0 24 24" fill="none" xmlns="http://www.w3.org/2000/svg">
<path d="M8.22461 6.38916H14.7246V9.63916L12.5579 11.8058L14.7246 13.9725V17.2225H8.22461V13.9725L10.3913 11.8058L8.22461 9.63916V6.38916ZM11.4746 11.535L13.6413 9.36833V7.47249H9.30794V9.36833L11.4746 11.535Z" fill="#0479F1"/>
<path d="M11.1699 2.31836C6.04789 2.57813 1.97462 6.81342 1.97461 12L1.9873 12.499C2.24707 17.621 6.48239 21.6943 11.6689 21.6943L12.168 21.6816C16.236 21.4753 19.6395 18.7603 20.8691 15.0537L18.5098 16.417C17.059 18.6592 14.5382 20.1444 11.6689 20.1445C7.17107 20.1445 3.52446 16.4979 3.52441 12C3.52442 7.50209 7.17104 3.85552 11.6689 3.85547C12.5427 3.8555 13.3839 3.9943 14.1729 4.24902L14.9629 2.87988C13.9345 2.50837 12.8254 2.30569 11.6689 2.30566L11.1699 2.31836Z" fill="#0479F1"/>
<circle cx="19.5312" cy="15.8231" r="1.47609" transform="rotate(30 19.5312 15.8231)" fill="#0479F1" stroke="#0479F1" stroke-width="0.7"/>
</svg>
