<svg width="24" height="24" viewBox="0 0 24 24" fill="none" xmlns="http://www.w3.org/2000/svg">
<path d="M3.12504 21C2.54067 21 2.04059 20.7921 1.62479 20.3763C1.209 19.9605 1.00075 19.4601 1.00004 18.875V11.4375C1.46046 11.7917 1.96515 12.0573 2.51411 12.2344C3.06307 12.4115 3.62088 12.5 4.18754 12.5C5.65734 12.5 6.91038 11.9819 7.94667 10.9456C8.98296 9.90927 9.50075 8.65658 9.50004 7.1875C9.50004 6.62083 9.4115 6.06302 9.23442 5.51406C9.05734 4.9651 8.79171 4.46042 8.43754 4H15.875C16.4594 4 16.9599 4.20825 17.3764 4.62475C17.7929 5.04125 18.0008 5.54133 18 6.125V10.9062L22.25 6.65625V18.3437L18 14.0937V18.875C18 19.4594 17.7921 19.9598 17.3764 20.3763C16.9606 20.7928 16.4601 21.0007 15.875 21H3.12504ZM4.18754 16.75H14.8125L11.2266 11.9687L8.43754 15.6875L6.71098 13.3766L4.18754 16.75Z" fill="#D4D8DD" fill-opacity="0.7"/>
<path d="M3.65625 6.39063V4H5.25V6.39063H7.64062V7.98437H5.25V10.375H3.65625V7.98437H1.26562V6.39063H3.65625Z" fill="#D4D8DD" fill-opacity="0.7"/>
</svg>
