<svg width="24" height="24" viewBox="0 0 24 24" fill="none" xmlns="http://www.w3.org/2000/svg">
<path d="M6.93812 11.5411L14.9553 6.81622C15.1561 6.69789 15.4092 6.84401 15.4071 7.07707L15.3238 16.3826C15.3217 16.612 15.073 16.7541 14.8743 16.6394L13.2896 15.7245C13.1832 15.663 13.05 15.6728 12.9537 15.7492L11.2495 17.1001C11.0113 17.289 10.6758 17.0441 10.7829 16.7597L12.5193 12.1485C12.6388 11.8312 12.2222 11.5907 12.0072 11.8528L8.88195 15.6622C8.68917 15.8972 8.3094 15.729 8.35382 15.4283L8.67169 13.277C8.68965 13.1554 8.63153 13.0351 8.52507 12.9737L6.94044 12.0588C6.74169 11.944 6.74041 11.6576 6.93812 11.5411Z" fill="#10BA69"/>
<path d="M20.5098 1C21.5175 1.00024 22.334 1.81742 22.334 2.8252C22.3339 3.70081 21.7173 4.43153 20.8945 4.6084V18.7256C21.7174 18.9024 22.334 19.634 22.334 20.5098C22.3337 21.5173 21.5173 22.3337 20.5098 22.334C19.6341 22.334 18.9035 21.7173 18.7266 20.8945H4.6084C4.43153 21.7173 3.70081 22.3339 2.8252 22.334C1.81742 22.334 1.00024 21.5175 1 20.5098C1 19.7574 1.4554 19.1113 2.10547 18.832V4.50195C1.45552 4.22271 1.00008 3.57742 1 2.8252C1 1.81728 1.81728 1 2.8252 1C3.57756 1.00008 4.22377 1.45534 4.50293 2.10547H18.832C19.1113 1.4554 19.7574 1 20.5098 1ZM4.44922 3.65527C4.27462 3.99614 3.99609 4.27356 3.65527 4.44824V18.8848C3.87672 18.9982 4.07198 19.155 4.22949 19.3447H19.1045C19.1771 19.2572 19.2572 19.1761 19.3447 19.1035V4.22949C19.155 4.07198 18.9982 3.87672 18.8848 3.65527H4.44922Z" fill="#10BA69"/>
</svg>
