<svg width="20" height="20" viewBox="0 0 20 20" fill="none" xmlns="http://www.w3.org/2000/svg">
<path d="M7.50008 10.0001C7.50008 9.32508 7.75008 8.75008 8.24175 8.24175C8.75008 7.75008 9.32508 7.50008 10.0001 7.50008C10.6751 7.50008 11.2501 7.75008 11.7584 8.24175C12.2501 8.75008 12.5001 9.32508 12.5001 10.0001C12.5001 10.6751 12.2501 11.2501 11.7584 11.7584C11.2501 12.2501 10.6751 12.5001 10.0001 12.5001C9.32508 12.5001 8.75008 12.2501 8.24175 11.7584C7.75008 11.2501 7.50008 10.6751 7.50008 10.0001ZM4.60841 7.03341L6.09175 8.51675L4.60841 10.0001L6.09175 11.4834L4.60841 12.9667L1.66675 10.0001L4.60841 7.03341ZM7.03341 15.3917L8.51675 13.9084L10.0001 15.3917L11.4834 13.9084L12.9667 15.3917L10.0001 18.3334L7.03341 15.3917ZM15.3917 12.9667L13.9084 11.4834L15.3917 10.0001L13.9084 8.51675L15.3917 7.03341L18.3334 10.0001L15.3917 12.9667ZM12.9667 4.60841L11.4834 6.09175L10.0001 4.60841L8.51675 6.09175L7.03341 4.60841L10.0001 1.66675L12.9667 4.60841Z" fill="#D4D8DD" fill-opacity="0.7"/>
</svg>
