<svg width="24" height="24" viewBox="0 0 24 24" fill="none" xmlns="http://www.w3.org/2000/svg">
<path d="M9.19653 17.9988L6.1897 23.2078L4.84595 22.4324L7.85278 17.2234L9.19653 17.9988ZM15.4563 2.10522C15.9396 1.26836 17.01 0.981474 17.8469 1.4646C18.6839 1.94781 18.9706 3.01824 18.4875 3.85522C18.1436 4.45088 17.5025 4.76622 16.8596 4.72534L15.5227 7.03979L15.5266 6.48608C15.5282 6.20218 15.2199 6.02456 14.9749 6.16772L13.8596 6.81909L15.5159 3.94995C15.1594 3.41373 15.1125 2.70065 15.4563 2.10522Z" fill="#10BA69"/>
<path d="M6.28334 12.1744L14.3005 7.44953C14.5013 7.33119 14.7544 7.47731 14.7523 7.71037L14.669 17.0159C14.6669 17.2453 14.4182 17.3874 14.2195 17.2727L12.6349 16.3578C12.5284 16.2963 12.3952 16.3061 12.2989 16.3825L10.5947 17.7334C10.3565 17.9223 10.021 17.6774 10.1281 17.393L11.8645 12.7818C11.984 12.4645 11.5674 12.224 11.3524 12.4861L8.22716 16.2955C8.03439 16.5305 7.65461 16.3623 7.69904 16.0616L8.0169 13.9103C8.03487 13.7887 7.97674 13.6684 7.87029 13.607L6.28565 12.6921C6.08691 12.5773 6.08563 12.2909 6.28334 12.1744Z" fill="#10BA69"/>
</svg>
