<svg width="24" height="24" viewBox="0 0 24 24" fill="none" xmlns="http://www.w3.org/2000/svg">
<path d="M11.6689 2.30566C12.8254 2.30571 13.9346 2.50838 14.9629 2.87988L14.1729 4.24902C13.3839 3.99431 12.5426 3.85551 11.6689 3.85547C7.17104 3.85552 3.52442 7.50209 3.52441 12C3.52446 16.4979 7.17107 20.1445 11.6689 20.1445C14.2932 20.1444 16.6251 18.9013 18.1143 16.9736C17.6511 16.4031 17.56 15.5845 17.9492 14.9102C18.4535 14.0368 19.5709 13.737 20.4443 14.2412C21.3177 14.7455 21.6166 15.8629 21.1123 16.7363C20.7768 17.3171 20.1704 17.6411 19.5449 17.6465C17.8771 19.9706 15.2088 21.5274 12.168 21.6816L11.6689 21.6943C6.48239 21.6943 2.24707 17.621 1.9873 12.499L1.97461 12C1.97462 6.81342 6.04789 2.57813 11.1699 2.31836L11.6689 2.30566ZM14.7246 9.63867L12.5576 11.8057L14.7246 13.9727V17.2227H8.22461V13.9727L10.3916 11.8057L8.22461 9.63867V6.38867H14.7246V9.63867ZM9.30762 9.36816L11.4746 11.5352L13.6416 9.36816V7.47266H9.30762V9.36816Z" fill="#D4D8DD" fill-opacity="0.7"/>
</svg>
