<svg width="24" height="24" viewBox="0 0 24 24" fill="none" xmlns="http://www.w3.org/2000/svg">
<path d="M8.9 3L3.824 4.71C3.644 4.773 3.5 4.935 3.5 5.142V18.75C3.5 18.8693 3.54741 18.9838 3.6318 19.0682C3.71619 19.1526 3.83065 19.2 3.95 19.2C3.995 19.2 4.04 19.2 4.094 19.173L8.9 17.31L12.644 18.624C12.554 18.228 12.5 17.814 12.5 17.4C12.5 17.193 12.5 16.986 12.536 16.77L8.9 15.51V4.8L14.3 6.69V13.404C15.263 12.54 16.523 12 17.9 12C18.53 12 19.133 12.117 19.7 12.324V3.45C19.7 3.33065 19.6526 3.21619 19.5682 3.1318C19.4838 3.04741 19.3693 3 19.25 3H19.106L14.3 4.89L8.9 3ZM17 13.8V16.5H14.3V18.3H17V21H18.8V18.3H21.5V16.5H18.8V13.8H17Z" fill="#0479F1"/>
</svg>
