<svg width="24" height="24" viewBox="0 0 24 24" fill="none" xmlns="http://www.w3.org/2000/svg">
<path d="M12.4998 14.8002C12.4998 16.6242 13.8598 18.7282 14.8278 20.0002H6.8998C6.0118 20.0002 5.2998 19.2882 5.2998 18.4002V5.60024C5.2998 5.1759 5.46838 4.76893 5.76843 4.46887C6.06849 4.16882 6.47546 4.00024 6.8998 4.00024H7.6998V9.60024L9.6998 8.40024L11.6998 9.60024V4.00024H16.4998C16.9242 4.00024 17.3311 4.16882 17.6312 4.46887C17.9312 4.76893 18.0998 5.1759 18.0998 5.60024V10.5762C17.6998 10.4642 17.2998 10.4002 16.8998 10.4002C14.4998 10.4002 12.4998 12.4002 12.4998 14.8002ZM19.6998 14.8002C19.6998 16.8802 16.8998 20.0002 16.8998 20.0002C16.8998 20.0002 14.0998 16.8802 14.0998 14.8002C14.0998 13.2802 15.3798 12.0002 16.8998 12.0002C18.4198 12.0002 19.6998 13.2802 19.6998 14.8002ZM17.8598 14.8802C17.8598 14.4002 17.3798 13.9202 16.8998 13.9202C16.4198 13.9202 15.9398 14.3202 15.9398 14.8802C15.9398 15.3602 16.3398 15.8402 16.8998 15.8402C17.4598 15.8402 17.9398 15.3602 17.8598 14.8802Z" fill="#0479F1"/>
</svg>
