<svg width="20" height="20" viewBox="0 0 20 20" fill="none" xmlns="http://www.w3.org/2000/svg">
<g clip-path="url(#clip0_976_44327)">
<path d="M10.1666 1.08301C11.8374 1.08301 13.4398 1.74676 14.6213 2.92823C15.8028 4.10971 16.4666 5.71214 16.4666 7.38301C16.4666 9.05387 15.8028 10.6563 14.6213 11.8378C13.4398 13.0193 11.8374 13.683 10.1666 13.683C8.49569 13.683 6.89326 13.0193 5.71178 11.8378C4.5303 10.6563 3.86655 9.05387 3.86655 7.38301C3.86655 5.71214 4.5303 4.10971 5.71178 2.92823C6.89326 1.74676 8.49569 1.08301 10.1666 1.08301ZM10.1666 2.88301C8.97308 2.88301 7.82849 3.35711 6.98457 4.20103C6.14066 5.04494 5.66655 6.18953 5.66655 7.38301C5.66655 8.57648 6.14066 9.72107 6.98457 10.565C7.82849 11.4089 8.97308 11.883 10.1666 11.883C10.7575 11.883 11.3427 11.7666 11.8886 11.5405C12.4346 11.3143 12.9307 10.9829 13.3485 10.565C13.7664 10.1471 14.0979 9.65105 14.324 9.10508C14.5502 8.55912 14.6666 7.97396 14.6666 7.38301C14.6666 6.18953 14.1924 5.04494 13.3485 4.20103C12.5046 3.35711 11.36 2.88301 10.1666 2.88301ZM10.1666 4.68301C10.8826 4.68301 11.5694 4.96747 12.0757 5.47382C12.5821 5.98017 12.8666 6.66692 12.8666 7.38301C12.8666 8.09909 12.5821 8.78585 12.0757 9.2922C11.5694 9.79854 10.8826 10.083 10.1666 10.083C9.45047 10.083 8.76371 9.79854 8.25736 9.2922C7.75102 8.78585 7.46655 8.09909 7.46655 7.38301C7.46655 6.66692 7.75102 5.98017 8.25736 5.47382C8.76371 4.96747 9.45047 4.68301 10.1666 4.68301ZM4.76655 19.083C4.28916 19.083 3.83133 18.8934 3.49376 18.5558C3.15619 18.2182 2.96655 17.7604 2.96655 17.283C2.96655 16.941 3.05655 16.626 3.22755 16.356L4.86555 13.512C6.33834 14.7846 8.22013 15.4843 10.1666 15.483C12.1916 15.483 14.0456 14.736 15.4676 13.512L17.1056 16.356C17.2766 16.626 17.3666 16.941 17.3666 17.283C17.3666 17.7604 17.1769 18.2182 16.8393 18.5558C16.5018 18.8934 16.0439 19.083 15.5666 19.083H4.76655Z" fill="#0479F1"/>
</g>
<defs>
<clipPath id="clip0_976_44327">
<rect width="20" height="20" fill="white"/>
</clipPath>
</defs>
</svg>
