<svg width="24" height="24" viewBox="0 0 24 24" fill="none" xmlns="http://www.w3.org/2000/svg">
<path d="M22.7749 6.1092L18.6433 13.4155C18.5399 13.5985 18.2763 13.5985 18.1728 13.4155L14.0413 6.1092C13.9394 5.92902 14.0695 5.70587 14.2765 5.70587H15.9269C16.0378 5.70587 16.1374 5.63815 16.1782 5.53506L16.9002 3.71126C17.001 3.45636 17.3735 3.49627 17.4181 3.76675L18.1414 8.15176C18.1911 8.4535 18.625 8.4535 18.6747 8.15176L19.398 3.76675C19.4426 3.49627 19.8151 3.45636 19.916 3.71126L20.6379 5.53506C20.6787 5.63815 20.7783 5.70587 20.8892 5.70587H22.5396C22.7466 5.70587 22.8767 5.92902 22.7749 6.1092Z" fill="#0479F1"/>
<path d="M1.56634 13.8849L8.45989 1.69422C8.63255 1.38889 9.07237 1.38889 9.24502 1.69422L16.1386 13.8849C16.3086 14.1856 16.0914 14.5579 15.746 14.5579H12.9923C12.8073 14.5579 12.6411 14.6709 12.573 14.8429L11.3684 17.886C11.2001 18.3113 10.5786 18.2447 10.5041 17.7934L9.29743 10.4769C9.21439 9.97341 8.49052 9.97341 8.40749 10.4769L7.20077 17.7934C7.12634 18.2447 6.50483 18.3113 6.33648 17.886L5.13194 14.8429C5.06385 14.6709 4.89761 14.5579 4.71261 14.5579H1.9589C1.61353 14.5579 1.39633 14.1856 1.56634 13.8849Z" fill="#0479F1"/>
<rect x="19" y="22" width="2" height="4" transform="rotate(-90 19 22)" fill="#0479F1"/>
<rect x="7" y="22" width="2" height="11" transform="rotate(-90 7 22)" fill="#0479F1"/>
<rect x="1" y="22" width="2" height="5" transform="rotate(-90 1 22)" fill="#0479F1"/>
</svg>
