<svg width="22" height="22" viewBox="0 0 22 22" fill="none" xmlns="http://www.w3.org/2000/svg">
<g clip-path="url(#clip0_303_54511)">
<path fill-rule="evenodd" clip-rule="evenodd" d="M10.7089 1.56979C10.9004 1.2313 11.3876 1.23128 11.5791 1.56979L19.2216 15.0854C19.3014 15.2264 19.3031 15.381 19.2509 15.5131C19.216 15.5055 19.1798 15.5013 19.1425 15.5014L17.6455 15.5063C17.3689 15.5071 17.1437 15.2829 17.1435 15.0063V13.0005C17.1435 12.7243 16.9196 12.5005 16.6435 12.5005L13.8584 12.4995C13.5825 12.4997 13.3586 12.7237 13.3584 12.9995V15.0815C13.3583 15.3576 13.1344 15.5815 12.8584 15.5815H12.3418L11.6367 11.3071C11.5446 10.7489 10.7424 10.7489 10.6503 11.3071L9.31245 19.4184C9.22993 19.9188 8.54109 19.9925 8.35445 19.521L7.01851 16.1479C6.94302 15.9572 6.75877 15.8315 6.55367 15.8315H3.50093C3.11807 15.8315 2.87705 15.4187 3.06538 15.0854L10.7089 1.56979Z" fill="#D4D8DD" fill-opacity="0.7"/>
<path d="M16.2399 13.6133C16.2401 13.5024 16.1501 13.4125 16.0392 13.4129L14.4238 13.4186C14.3136 13.419 14.2245 13.5084 14.2245 13.6186L14.2245 16.2395C14.2245 16.3499 14.135 16.4395 14.0245 16.4395L11.4043 16.4395C11.2939 16.4395 11.2043 16.529 11.2043 16.6395L11.2043 18.2482C11.2043 18.3587 11.2939 18.4482 11.4043 18.4482L14.0245 18.4482C14.135 18.4482 14.2245 18.5377 14.2245 18.6482V21.2691C14.2245 21.3793 14.3136 21.4687 14.4238 21.4691L16.0392 21.4748C16.1501 21.4752 16.2401 21.3853 16.2399 21.2744L16.2337 18.6491C16.2334 18.5383 16.3233 18.4484 16.4342 18.4487L19.0601 18.4549C19.1707 18.4551 19.2606 18.3655 19.2606 18.2549L19.2606 16.6328C19.2606 16.5222 19.1707 16.4326 19.0601 16.4328L16.4342 16.439C16.3233 16.4393 16.2334 16.3494 16.2337 16.2385L16.2399 13.6133Z" fill="#D4D8DD" fill-opacity="0.7"/>
</g>
<defs>
<clipPath id="clip0_303_54511">
<rect width="22" height="22" fill="white"/>
</clipPath>
</defs>
</svg>
