<svg width="24" height="24" viewBox="0 0 24 24" fill="none" xmlns="http://www.w3.org/2000/svg">
<circle cx="12" cy="9.5" r="1.5" fill="#D4D8DD" fill-opacity="0.7"/>
<path d="M12 1.22461C12.3393 1.22461 12.6758 1.29194 12.9893 1.42188C13.3025 1.5518 13.5874 1.74248 13.8271 1.98242L19.5166 7.67285H19.5176C19.7575 7.91255 19.9482 8.19746 20.0781 8.51074C20.2081 8.8242 20.2754 9.16068 20.2754 9.5C20.2754 9.83932 20.2081 10.1758 20.0781 10.4893C19.9482 10.8025 19.7575 11.0874 19.5176 11.3271L14.9297 15.9141L14.1348 14.5166L18.4219 10.2305L18.4902 10.1553C18.5546 10.0769 18.6075 9.98952 18.6465 9.89551C18.6984 9.77021 18.7246 9.63564 18.7246 9.5C18.7246 9.36436 18.6984 9.22979 18.6465 9.10449C18.6075 9.01048 18.5546 8.92307 18.4902 8.84473L18.4219 8.76953L12.7305 3.07812C12.6347 2.98221 12.5207 2.90545 12.3955 2.85352C12.2702 2.80158 12.1356 2.77539 12 2.77539C11.8644 2.77539 11.7298 2.80158 11.6045 2.85352C11.5105 2.8925 11.4231 2.94539 11.3447 3.00977L11.2695 3.07812L5.57812 8.76953C5.48221 8.86535 5.40545 8.97926 5.35352 9.10449C5.30158 9.22979 5.27539 9.36436 5.27539 9.5C5.27539 9.63564 5.30158 9.77021 5.35352 9.89551C5.3925 9.98952 5.44539 10.0769 5.50977 10.1553L5.57812 10.2305L10.0322 14.6846L9.23633 16.0811L4.4834 11.3262L4.48242 11.3271C4.24248 11.0874 4.0518 10.8025 3.92188 10.4893C3.79194 10.1758 3.72461 9.83932 3.72461 9.5C3.72461 9.16068 3.79194 8.8242 3.92188 8.51074C4.0518 8.19746 4.24248 7.91255 4.48242 7.67285H4.4834L10.1729 1.98242C10.4126 1.74248 10.6975 1.5518 11.0107 1.42188C11.3242 1.29194 11.6607 1.22461 12 1.22461Z" fill="#D4D8DD" fill-opacity="0.7"/>
<path d="M8.20207 20.1277L11.8626 13.6543C11.9543 13.4921 12.1879 13.4921 12.2795 13.6543L15.9401 20.1277C16.0304 20.2873 15.915 20.485 15.7316 20.485H14.2694C14.1712 20.485 14.0829 20.545 14.0467 20.6364L13.4071 22.2523C13.3177 22.4781 12.9877 22.4428 12.9482 22.2031L12.3074 18.318C12.2633 18.0506 11.8789 18.0506 11.8348 18.318L11.194 22.2031C11.1545 22.4428 10.8245 22.4781 10.7351 22.2523L10.0954 20.6364C10.0593 20.545 9.97102 20.485 9.87278 20.485H8.41053C8.22713 20.485 8.1118 20.2873 8.20207 20.1277Z" fill="#D4D8DD" fill-opacity="0.7"/>
</svg>
