<svg width="24" height="24" viewBox="0 0 24 24" fill="none" xmlns="http://www.w3.org/2000/svg">
<path d="M13.408 2.90527C18.5299 3.16514 22.6033 7.4004 22.6033 12.5869L22.5906 13.0859C22.3306 18.2077 18.0952 22.2811 12.9089 22.2812L12.4099 22.2686C10.3118 22.1621 8.39213 21.3853 6.85425 20.1523C6.00797 20.539 4.99104 20.2265 4.51636 19.4043C4.01232 18.531 4.31123 17.4145 5.18433 16.9102C6.05767 16.4059 7.17513 16.7049 7.67944 17.5781C7.93299 18.0173 7.98272 18.5183 7.85913 18.9717C9.24722 20.0716 11.0004 20.7314 12.9089 20.7314C17.4066 20.7313 21.0532 17.0845 21.0535 12.5869C21.0535 8.08906 17.4068 4.44252 12.9089 4.44238C12.108 4.44241 11.3345 4.55987 10.6033 4.77539V3.1709C11.3424 2.99051 12.1143 2.89162 12.9089 2.8916L13.408 2.90527ZM3.7146 15.6436L3.71167 15.6494C3.71075 15.6466 3.70966 15.6434 3.70874 15.6406L3.7146 15.6436Z" fill="#10BA69"/>
<path d="M1.0514 9.54111L9.06854 4.81622C9.26934 4.69789 9.52243 4.84401 9.52035 5.07707L9.43705 14.3826C9.43499 14.612 9.18631 14.7541 8.98756 14.6394L7.40293 13.7245C7.29647 13.663 7.16327 13.6728 7.06694 13.7492L5.36276 15.1001C5.12458 15.289 4.78905 15.0441 4.89616 14.7597L6.63257 10.1485C6.75206 9.83119 6.33551 9.59069 6.12046 9.85282L2.99523 13.6622C2.80245 13.8972 2.42268 13.729 2.46711 13.4283L2.78497 11.277C2.80293 11.1554 2.74481 11.0351 2.63835 10.9737L1.05372 10.0588C0.854974 9.94405 0.853692 9.65763 1.0514 9.54111Z" fill="#10BA69"/>
</svg>
