<svg width="20" height="20" viewBox="0 0 20 20" fill="none" xmlns="http://www.w3.org/2000/svg">
<path d="M11.6425 11.6425L5.5 14.5L8.3575 8.3575L14.5 5.5M10 2.5C9.01509 2.5 8.03982 2.69399 7.12987 3.0709C6.21993 3.44781 5.39314 4.00026 4.6967 4.6967C3.29018 6.10322 2.5 8.01088 2.5 10C2.5 11.9891 3.29018 13.8968 4.6967 15.3033C5.39314 15.9997 6.21993 16.5522 7.12987 16.9291C8.03982 17.306 9.01509 17.5 10 17.5C11.9891 17.5 13.8968 16.7098 15.3033 15.3033C16.7098 13.8968 17.5 11.9891 17.5 10C17.5 9.01509 17.306 8.03982 16.9291 7.12987C16.5522 6.21993 15.9997 5.39314 15.3033 4.6967C14.6069 4.00026 13.7801 3.44781 12.8701 3.0709C11.9602 2.69399 10.9849 2.5 10 2.5ZM10 9.175C9.7812 9.175 9.57135 9.26192 9.41664 9.41664C9.26192 9.57135 9.175 9.7812 9.175 10C9.175 10.2188 9.26192 10.4286 9.41664 10.5834C9.57135 10.7381 9.7812 10.825 10 10.825C10.2188 10.825 10.4286 10.7381 10.5834 10.5834C10.7381 10.4286 10.825 10.2188 10.825 10C10.825 9.7812 10.7381 9.57135 10.5834 9.41664C10.4286 9.26192 10.2188 9.175 10 9.175Z" fill="#D4D8DD" fill-opacity="0.7"/>
</svg>
