<svg width="20" height="20" viewBox="0 0 20 20" fill="none" xmlns="http://www.w3.org/2000/svg">
<path d="M15.9497 16.8C16.4172 16.8 16.8172 16.6337 17.1499 16.3011C17.4825 15.9684 17.6491 15.5681 17.6497 15.1V4.9C17.6497 4.4325 17.4831 4.03243 17.1499 3.6998C16.8167 3.36717 16.4166 3.20057 15.9497 3.2H12.5497V4.9H15.9497V15.1H12.5497V16.8H15.9497ZM10.8497 18.5V1.5H9.14966V3.2H4.04966C3.58216 3.2 3.18181 3.3666 2.84861 3.6998C2.51541 4.033 2.34909 4.43307 2.34966 4.9V15.1C2.34966 15.5675 2.51597 15.9679 2.84861 16.3011C3.18124 16.6343 3.58159 16.8006 4.04966 16.8H9.14966V18.5H10.8497Z" fill="#D4D8DD"/>
</svg>
