<svg width="22" height="22" viewBox="0 0 22 22" fill="none" xmlns="http://www.w3.org/2000/svg">
<g clip-path="url(#clip0_303_54548)">
<path d="M10.7092 1.56982C10.9007 1.23148 11.388 1.23136 11.5793 1.56982L19.2219 15.0854C19.3016 15.2264 19.3033 15.3811 19.2512 15.5132C19.2163 15.5056 19.18 15.5014 19.1428 15.5015L17.6458 15.5063C17.3691 15.5072 17.1439 15.2829 17.1438 15.0063V13.0005C17.1438 12.7244 16.9199 12.5005 16.6438 12.5005H13.8586C13.5827 12.5007 13.3586 12.7245 13.3586 13.0005V15.0815C13.3586 15.3577 13.1348 15.5815 12.8586 15.5815H12.342L11.637 11.3071C11.5449 10.749 10.7427 10.749 10.6506 11.3071L9.31274 19.4185C9.23025 19.9187 8.54165 19.993 8.35474 19.522L7.0188 16.1479C6.94331 15.9572 6.75906 15.8315 6.55396 15.8315H3.50122C3.11831 15.8315 2.8772 15.4188 3.06567 15.0854L10.7092 1.56982Z" fill="#D4D8DD"/>
<path d="M16.2401 13.6133C16.2404 13.5024 16.1503 13.4125 16.0394 13.4129L14.424 13.4186C14.3139 13.419 14.2248 13.5084 14.2248 13.6186L14.2248 16.2395C14.2248 16.3499 14.1352 16.4395 14.0248 16.4395L11.4046 16.4395C11.2941 16.4395 11.2046 16.529 11.2046 16.6395L11.2046 18.2482C11.2046 18.3587 11.2941 18.4482 11.4046 18.4482L14.0248 18.4482C14.1352 18.4482 14.2248 18.5377 14.2248 18.6482V21.2691C14.2248 21.3793 14.3139 21.4687 14.424 21.4691L16.0394 21.4748C16.1503 21.4752 16.2404 21.3853 16.2401 21.2744L16.2339 18.6491C16.2337 18.5383 16.3236 18.4484 16.4344 18.4487L19.0603 18.4549C19.171 18.4551 19.2608 18.3655 19.2608 18.2549L19.2608 16.6328C19.2608 16.5222 19.171 16.4326 19.0603 16.4328L16.4344 16.439C16.3236 16.4393 16.2337 16.3494 16.2339 16.2385L16.2401 13.6133Z" fill="#D4D8DD"/>
</g>
<defs>
<clipPath id="clip0_303_54548">
<rect width="22" height="22" fill="white"/>
</clipPath>
</defs>
</svg>
