<svg width="24" height="24" viewBox="0 0 24 24" fill="none" xmlns="http://www.w3.org/2000/svg">
<g clip-path="url(#clip0_976_42725)">
<path d="M11.4999 8.3645C11.3788 8.3645 11.2589 8.38835 11.1471 8.43469C11.0352 8.48103 10.9336 8.54896 10.848 8.63459L8.63485 10.848C8.54922 10.9336 8.48129 11.0353 8.43495 11.1471C8.3886 11.259 8.36475 11.3788 8.36475 11.4999C8.36475 11.621 8.3886 11.7409 8.43495 11.8527C8.48129 11.9646 8.54922 12.0662 8.63485 12.1518L10.848 14.365C10.9336 14.4506 11.0352 14.5185 11.1471 14.5649C11.2589 14.6112 11.3788 14.6351 11.4999 14.6351C11.621 14.6351 11.7409 14.6112 11.8527 14.5649C11.9646 14.5185 12.0662 14.4506 12.1518 14.365L14.3649 12.1518C14.4506 12.0662 14.5185 11.9646 14.5648 11.8527C14.6112 11.7409 14.635 11.621 14.635 11.4999C14.635 11.3788 14.6112 11.259 14.5648 11.1471C14.5185 11.0353 14.4506 10.9336 14.3649 10.848L12.1518 8.63488C12.0662 8.5492 11.9646 8.48122 11.8527 8.43483C11.7409 8.38843 11.621 8.36454 11.4999 8.3645Z" fill="#0479F1"/>
</g>
<path d="M20.5098 1C21.5175 1.00024 22.334 1.81742 22.334 2.8252C22.3339 3.70081 21.7173 4.43153 20.8945 4.6084V18.7256C21.7174 18.9024 22.334 19.634 22.334 20.5098C22.3337 21.5173 21.5173 22.3337 20.5098 22.334C19.6341 22.334 18.9035 21.7173 18.7266 20.8945H4.6084C4.43153 21.7173 3.70081 22.3339 2.8252 22.334C1.81742 22.334 1.00024 21.5175 1 20.5098C1 19.7574 1.4554 19.1113 2.10547 18.832V4.50195C1.45552 4.22271 1.00008 3.57742 1 2.8252C1 1.81728 1.81728 1 2.8252 1C3.57756 1.00008 4.22377 1.45534 4.50293 2.10547H18.832C19.1113 1.4554 19.7574 1 20.5098 1ZM4.44922 3.65527C4.27462 3.99614 3.99609 4.27356 3.65527 4.44824V18.8848C3.87672 18.9982 4.07198 19.155 4.22949 19.3447H19.1045C19.1771 19.2572 19.2572 19.1761 19.3447 19.1035V4.22949C19.155 4.07198 18.9982 3.87672 18.8848 3.65527H4.44922Z" fill="#0479F1"/>
<defs>
<clipPath id="clip0_976_42725">
<rect width="7" height="7" fill="white" transform="translate(8 8)"/>
</clipPath>
</defs>
</svg>
