<svg width="24" height="24" viewBox="0 0 24 24" fill="none" xmlns="http://www.w3.org/2000/svg">
<g clip-path="url(#clip0_976_42654)">
<path d="M15.0514 11.5411L23.0685 6.81622C23.2693 6.69789 23.5224 6.84401 23.5203 7.07707L23.437 16.3826C23.435 16.612 23.1863 16.7541 22.9876 16.6394L21.4029 15.7245C21.2965 15.663 21.1633 15.6728 21.0669 15.7492L19.3628 17.1001C19.1246 17.289 18.7891 17.0441 18.8962 16.7597L20.6326 12.1485C20.7521 11.8312 20.3355 11.5907 20.1205 11.8528L16.9952 15.6622C16.8025 15.8972 16.4227 15.729 16.4671 15.4283L16.785 13.277C16.8029 13.1554 16.7448 13.0351 16.6384 12.9737L15.0537 12.0588C14.855 11.944 14.8537 11.6576 15.0514 11.5411Z" fill="#D4D8DD" fill-opacity="0.7"/>
<path d="M2.8252 18.6846C3.83303 18.6847 4.65039 19.5019 4.65039 20.5098C4.65015 21.5174 3.83288 22.3339 2.8252 22.334C1.81742 22.334 1.00024 21.5175 1 20.5098C1 19.5018 1.81728 18.6846 2.8252 18.6846ZM20.5098 18.6846C21.5175 18.6848 22.334 19.502 22.334 20.5098C22.3337 21.5173 21.5173 22.3337 20.5098 22.334C19.502 22.334 18.6848 21.5175 18.6846 20.5098C18.6846 19.5018 19.5018 18.6846 20.5098 18.6846ZM9.93457 20.8945H6.80273V19.3447H9.93457V20.8945ZM16.1973 20.8945H13.0664V19.3447H16.1973V20.8945ZM3.65527 16.1973H2.10547V13.0664H3.65527V16.1973ZM3.65527 9.93457H2.10547V6.80273H3.65527V9.93457ZM2.8252 1C3.83303 1.00011 4.65039 1.81734 4.65039 2.8252C4.65029 3.83296 3.83296 4.65029 2.8252 4.65039C1.81734 4.65039 1.00011 3.83303 1 2.8252C1 1.81728 1.81728 1 2.8252 1ZM20.5098 1C21.5175 1.00024 22.334 1.81742 22.334 2.8252C22.3339 3.83288 21.5174 4.65015 20.5098 4.65039C19.5019 4.65039 18.6847 3.83303 18.6846 2.8252C18.6846 1.81728 19.5018 1 20.5098 1ZM9.93457 3.65527H6.80273V2.10547H9.93457V3.65527ZM16.1973 3.65527H13.0664V2.10547H16.1973V3.65527Z" fill="#D4D8DD" fill-opacity="0.7"/>
</g>
<defs>
<clipPath id="clip0_976_42654">
<rect width="24" height="24" fill="white"/>
</clipPath>
</defs>
</svg>
