<svg width="20" height="20" viewBox="0 0 20 20" fill="none" xmlns="http://www.w3.org/2000/svg">
<path d="M10 7.81814C9.42135 7.81814 8.86639 8.04801 8.45722 8.45718C8.04805 8.86635 7.81818 9.4213 7.81818 9.99996C7.81818 10.5786 8.04805 11.1336 8.45722 11.5427C8.86639 11.9519 9.42135 12.1818 10 12.1818C10.5787 12.1818 11.1336 11.9519 11.5428 11.5427C11.9519 11.1336 12.1818 10.5786 12.1818 9.99996C12.1818 9.4213 11.9519 8.86635 11.5428 8.45718C11.1336 8.04801 10.5787 7.81814 10 7.81814ZM10 13.6363C9.03558 13.6363 8.11065 13.2532 7.4287 12.5713C6.74675 11.8893 6.36364 10.9644 6.36364 9.99996C6.36364 9.03553 6.74675 8.11061 7.4287 7.42866C8.11065 6.74671 9.03558 6.36359 10 6.36359C10.9644 6.36359 11.8893 6.74671 12.5713 7.42866C13.2532 8.11061 13.6364 9.03553 13.6364 9.99996C13.6364 10.9644 13.2532 11.8893 12.5713 12.5713C11.8893 13.2532 10.9644 13.6363 10 13.6363ZM10 4.54541C6.36364 4.54541 3.25818 6.80723 2 9.99996C3.25818 13.1927 6.36364 15.4545 10 15.4545C13.6364 15.4545 16.7418 13.1927 18 9.99996C16.7418 6.80723 13.6364 4.54541 10 4.54541Z" fill="#0479F1"/>
</svg>
