<svg width="24" height="24" viewBox="0 0 24 24" fill="none" xmlns="http://www.w3.org/2000/svg">
<path d="M9.19653 17.998L6.1897 23.207L4.84595 22.4316L7.85278 17.2227L9.19653 17.998ZM15.4563 2.10547C15.9395 1.26846 17.0099 0.981595 17.8469 1.46484C18.6839 1.9481 18.9708 3.01847 18.4875 3.85547C18.1435 4.4514 17.5018 4.76588 16.8586 4.72461L15.5227 7.03906L15.5266 6.48535C15.5279 6.2018 15.2198 6.02419 14.9749 6.16699L13.8596 6.81836L15.5159 3.94922C15.1597 3.41309 15.1127 2.70071 15.4563 2.10547Z" fill="#D4D8DD" fill-opacity="0.7"/>
<path d="M6.28334 12.1744L14.3005 7.44953C14.5013 7.33119 14.7544 7.47731 14.7523 7.71037L14.669 17.0159C14.6669 17.2453 14.4182 17.3874 14.2195 17.2727L12.6349 16.3578C12.5284 16.2963 12.3952 16.3061 12.2989 16.3825L10.5947 17.7334C10.3565 17.9223 10.021 17.6774 10.1281 17.393L11.8645 12.7818C11.984 12.4645 11.5674 12.224 11.3524 12.4861L8.22716 16.2955C8.03439 16.5305 7.65461 16.3623 7.69904 16.0616L8.0169 13.9103C8.03487 13.7887 7.97674 13.6684 7.87029 13.607L6.28565 12.6921C6.08691 12.5773 6.08563 12.2909 6.28334 12.1744Z" fill="#D4D8DD" fill-opacity="0.7"/>
</svg>
