<svg width="24" height="24" viewBox="0 0 24 24" fill="none" xmlns="http://www.w3.org/2000/svg">
<path d="M17.5003 15.2149C18.2959 15.2149 19.059 15.531 19.6216 16.0936C20.1842 16.6562 20.5003 17.4193 20.5003 18.2149C20.5003 19.0106 20.1842 19.7736 19.6216 20.3362C19.059 20.8988 18.2959 21.2149 17.5003 21.2149C16.8793 21.2167 16.2731 21.0251 15.766 20.6667C15.2588 20.3083 14.8759 19.8009 14.6703 19.2149H13.5003V17.2149H14.6703C15.0803 16.0449 16.1903 15.2149 17.5003 15.2149ZM17.5003 17.2149C17.235 17.2149 16.9807 17.3203 16.7931 17.5078C16.6056 17.6953 16.5003 17.9497 16.5003 18.2149C16.5003 18.4801 16.6056 18.7345 16.7931 18.922C16.9807 19.1096 17.235 19.2149 17.5003 19.2149C17.7655 19.2149 18.0198 19.1096 18.2074 18.922C18.3949 18.7345 18.5003 18.4801 18.5003 18.2149C18.5003 17.9497 18.3949 17.6953 18.2074 17.5078C18.0198 17.3203 17.7655 17.2149 17.5003 17.2149ZM17.5003 8.21491C17.8795 8.21491 18.2432 8.06425 18.5114 7.79607C18.7796 7.5279 18.9303 7.16417 18.9303 6.78491C18.9303 6.40565 18.7796 6.04193 18.5114 5.77375C18.2432 5.50557 17.8795 5.35491 17.5003 5.35491C17.121 5.35491 16.7573 5.50557 16.4891 5.77375C16.2209 6.04193 16.0703 6.40565 16.0703 6.78491C16.0703 7.16417 16.2209 7.5279 16.4891 7.79607C16.7573 8.06425 17.121 8.21491 17.5003 8.21491ZM17.5003 2.78491C18.5611 2.78491 19.5785 3.20634 20.3287 3.95649C21.0788 4.70663 21.5003 5.72405 21.5003 6.78491C21.5003 9.77491 17.5003 14.2149 17.5003 14.2149C17.5003 14.2149 13.5003 9.77491 13.5003 6.78491C13.5003 5.72405 13.9217 4.70663 14.6718 3.95649C15.422 3.20634 16.4394 2.78491 17.5003 2.78491ZM8.33026 17.2149H9.50026V19.2149H8.33026C8.12464 19.8009 7.74168 20.3083 7.23454 20.6667C6.7274 21.0251 6.12125 21.2167 5.50026 21.2149C4.70461 21.2149 3.94155 20.8988 3.37894 20.3362C2.81633 19.7736 2.50026 19.0106 2.50026 18.2149C2.50026 16.9049 3.33026 15.7949 4.50026 15.3849V14.2149H6.50026V15.3849C7.35026 15.6849 8.03026 16.3649 8.33026 17.2149ZM5.50026 17.2149C5.23504 17.2149 4.98069 17.3203 4.79315 17.5078C4.60561 17.6953 4.50026 17.9497 4.50026 18.2149C4.50026 18.4801 4.60561 18.7345 4.79315 18.922C4.98069 19.1096 5.23504 19.2149 5.50026 19.2149C5.76547 19.2149 6.01983 19.1096 6.20736 18.922C6.3949 18.7345 6.50026 18.4801 6.50026 18.2149C6.50026 17.9497 6.3949 17.6953 6.20736 17.5078C6.01983 17.3203 5.76547 17.2149 5.50026 17.2149ZM5.50026 3.21491C6.29591 3.21491 7.05897 3.53098 7.62158 4.09359C8.18419 4.6562 8.50026 5.41926 8.50026 6.21491C8.50026 7.52491 7.67026 8.63491 6.50026 9.04491V10.2149H4.50026V9.04491C3.91428 8.8393 3.40687 8.45634 3.04847 7.9492C2.69007 7.44206 2.49846 6.83591 2.50026 6.21491C2.50026 5.41926 2.81633 4.6562 3.37894 4.09359C3.94155 3.53098 4.70461 3.21491 5.50026 3.21491ZM5.50026 5.21491C5.23504 5.21491 4.98069 5.32027 4.79315 5.50781C4.60561 5.69534 4.50026 5.9497 4.50026 6.21491C4.50026 6.48013 4.60561 6.73448 4.79315 6.92202C4.98069 7.10956 5.23504 7.21491 5.50026 7.21491C5.76547 7.21491 6.01983 7.10956 6.20736 6.92202C6.3949 6.73448 6.50026 6.48013 6.50026 6.21491C6.50026 5.9497 6.3949 5.69534 6.20736 5.50781C6.01983 5.32027 5.76547 5.21491 5.50026 5.21491ZM10.5003 19.2149V17.2149H12.5003V19.2149H10.5003ZM6.50026 13.2149H4.50026V11.2149H6.50026V13.2149Z" fill="#0479F1"/>
</svg>
